<svg aria-hidden="true" style="position: absolute; width: 0; height: 0; overflow: hidden;" version="1.1" xmlns="http://www.w3.org/2000/svg" xmlns:xlink="http://www.w3.org/1999/xlink">
<defs>
<symbol id="icon-add" viewBox="0 0 32 32">
<title>add</title>
<path d="M16.667 8v7.333h7.333c0.368 0 0.667 0.298 0.667 0.667s-0.298 0.667-0.667 0.667v0h-7.333v7.333c0 0.368-0.298 0.667-0.667 0.667s-0.667-0.298-0.667-0.667v0-7.333h-7.333c-0.368 0-0.667-0.298-0.667-0.667s0.298-0.667 0.667-0.667v0h7.333v-7.333c0-0.368 0.298-0.667 0.667-0.667s0.667 0.298 0.667 0.667v0z"></path>
</symbol>
<symbol id="icon-bell" viewBox="0 0 32 32">
<title>bell</title>
<path d="M8 26h3.401c0.327 2.273 2.262 4 4.599 4s4.272-1.727 4.596-3.975l0.003-0.025h3.401c0 0 0 0 0.001 0 1.841 0 3.333-1.492 3.333-3.333 0-0.754-0.251-1.45-0.673-2.009l0.006 0.008c-0.415-0.551-0.665-1.246-0.667-2v-6.276c0-0.037 0.001-0.081 0.001-0.125 0-5.471-4.274-9.944-9.665-10.261l-0.028-0.001c-0.092-0.003-0.199-0.005-0.307-0.005-5.523 0-10 4.477-10 10v0 6.667c-0.002 0.754-0.252 1.449-0.673 2.009l0.006-0.009c-0.416 0.55-0.667 1.246-0.667 2 0 1.841 1.492 3.333 3.333 3.334h0zM16 28.667c-1.604-0.002-2.943-1.135-3.262-2.645l-0.004-0.022h6.532c-0.323 1.531-1.662 2.665-3.266 2.667h-0zM6.4 21.467c0.581-0.771 0.932-1.744 0.934-2.8v-6.667c0-0 0-0 0-0 0-4.785 3.879-8.665 8.664-8.666h0c0.090 0 0.18 0.001 0.27 0.005 4.7 0.291 8.401 4.173 8.401 8.921 0 0.047-0 0.093-0.001 0.14l0-0.007v6.275c0.002 1.055 0.352 2.028 0.941 2.812l-0.009-0.012c0.25 0.33 0.401 0.748 0.401 1.201 0 1.104-0.895 1.999-1.999 1.999-0 0-0 0-0.001 0h-16c-0 0-0 0-0 0-1.105 0-2-0.895-2-2 0-0.452 0.15-0.87 0.404-1.205l-0.004 0.005z"></path>
</symbol>
<symbol id="icon-bell-off" viewBox="0 0 32 32">
<title>bell-off</title>
<path d="M6.916 7.859c-0.572 1.215-0.909 2.638-0.916 4.139v6.669c-0.002 0.754-0.252 1.449-0.673 2.009l0.006-0.009c-0.416 0.55-0.667 1.246-0.667 2 0 1.841 1.492 3.333 3.333 3.333 0 0 0 0 0.001 0h3.401c0.327 2.273 2.262 4 4.599 4s4.272-1.727 4.596-3.975l0.003-0.025h4.458l2.471 2.471c0.12 0.116 0.283 0.187 0.463 0.187 0.368 0 0.667-0.298 0.667-0.667 0-0.18-0.071-0.343-0.187-0.463l-24-24c-0.12-0.116-0.283-0.187-0.463-0.187-0.368 0-0.667 0.298-0.667 0.667 0 0.18 0.071 0.343 0.187 0.463l-0-0zM16 28.667c-1.604-0.002-2.943-1.135-3.262-2.645l-0.004-0.022h6.532c-0.323 1.531-1.662 2.665-3.266 2.667h-0zM7.333 12c0-0.003 0-0.007 0-0.010 0-1.124 0.216-2.198 0.61-3.182l-0.020 0.058 15.801 15.801h-15.724c-0 0-0 0-0.001 0-1.104 0-1.999-0.895-1.999-1.999 0-0.453 0.151-0.871 0.405-1.206l-0.004 0.005c0.58-0.771 0.93-1.744 0.932-2.799v-0.001zM9.765 5.994l-0.942-0.942c0.073-0.075 0.138-0.156 0.214-0.229 1.792-1.746 4.243-2.824 6.945-2.824 0.114 0 0.228 0.002 0.342 0.006l-0.017-0c5.419 0.319 9.693 4.791 9.693 10.262 0 0.044-0 0.088-0.001 0.131l0-0.007v6.275c0.002 0.754 0.252 1.449 0.673 2.009l-0.006-0.009c0.409 0.543 0.655 1.229 0.655 1.973 0 0.288-0.037 0.567-0.106 0.833l0.005-0.023-1.302-1.302c-0.067-0.26-0.177-0.487-0.323-0.687l0.004 0.006c-0.58-0.771-0.93-1.744-0.932-2.799v-6.276c0.001-0.040 0.001-0.086 0.001-0.133 0-4.747-3.701-8.629-8.374-8.919l-0.025-0.001c-0.090-0.003-0.181-0.005-0.27-0.005-0.008-0-0.017-0-0.026-0-2.339 0-4.46 0.934-6.010 2.448l0.002-0.002c-0.071 0.069-0.132 0.144-0.2 0.214z"></path>
</symbol>
<symbol id="icon-bookmark" viewBox="0 0 32 32">
<title>bookmark</title>
<path d="M22.667 2h-13.333c-1.84 0.002-3.331 1.493-3.333 3.333v22.664c-0 0.004-0 0.008-0 0.013 0 0.798 0.472 1.486 1.152 1.799l0.012 0.005c0.247 0.117 0.536 0.186 0.841 0.186h0c0.497-0.001 0.951-0.184 1.298-0.486l-0.002 0.002 6.267-5.37c0.115-0.101 0.267-0.162 0.433-0.162s0.318 0.062 0.434 0.163l-0.001-0.001 6.266 5.369c0.347 0.299 0.803 0.482 1.302 0.482 1.104 0 1.999-0.895 1.999-1.999 0-0 0-0 0-0.001v0-22.664c-0.002-1.84-1.493-3.331-3.333-3.333h-0zM24.667 27.997c0 0 0 0.001 0 0.001 0 0.368-0.298 0.666-0.666 0.666-0.166 0-0.318-0.061-0.435-0.162l0.001 0.001-6.264-5.369c-0.347-0.302-0.803-0.486-1.302-0.486s-0.955 0.184-1.303 0.487l-6.263 5.368c-0.116 0.1-0.268 0.161-0.434 0.161-0.368 0-0.666-0.298-0.666-0.666 0-0 0-0 0-0.001v0-22.664c0.001-1.104 0.896-1.999 2-2h13.333c1.104 0.001 1.999 0.896 2 2v0z"></path>
</symbol>
<symbol id="icon-home" viewBox="0 0 32 32">
<title>home</title>
<path d="M8 28.667h16c1.84-0.002 3.331-1.493 3.333-3.333v-11.334c-0.005-1.955-0.94-3.691-2.385-4.789l-0.015-0.011h-0.001l-6.933-5.2c-0.551-0.413-1.247-0.662-2-0.662s-1.449 0.249-2.009 0.668l0.009-0.006-6.934 5.2c-1.46 1.109-2.395 2.845-2.4 4.799v11.334c0.002 1.84 1.493 3.331 3.333 3.333h0zM18.934 27.333h-5.867v-5.333c0-1.62 1.313-2.934 2.934-2.934s2.934 1.313 2.934 2.934v0zM6 14c0.004-1.521 0.731-2.871 1.855-3.725l0.012-0.008 6.933-5.2c0.331-0.248 0.748-0.397 1.201-0.397s0.87 0.149 1.206 0.401l-0.005-0.004 6.933 5.2c1.136 0.863 1.863 2.213 1.867 3.733v11.334c-0.001 1.104-0.896 1.999-2 2h-3.733v-5.333c0-2.357-1.91-4.267-4.267-4.267s-4.267 1.91-4.267 4.267v0 5.333h-3.733c-1.104-0.001-1.999-0.896-2-2v-0z"></path>
</symbol>
<symbol id="icon-lock" viewBox="0 0 32 32">
<title>lock</title>
<path d="M27.333 26.667v-10.667c-0.002-1.84-1.493-3.331-3.333-3.333h-2v-4.667c0-3.314-2.686-6-6-6s-6 2.686-6 6v0 4.667h-2c-1.84 0.002-3.331 1.493-3.333 3.333v10.667c0.002 1.84 1.493 3.331 3.333 3.333h16c1.84-0.002 3.331-1.493 3.333-3.333v-0zM11.333 8c0-2.577 2.089-4.667 4.667-4.667s4.667 2.089 4.667 4.667v0 4.667h-9.333zM6 26.667v-10.667c0.001-1.104 0.896-1.999 2-2h16c1.104 0.001 1.999 0.896 2 2v10.667c-0.001 1.104-0.896 1.999-2 2h-16c-1.104-0.001-1.999-0.896-2-2v-0z"></path>
</symbol>
<symbol id="icon-love" viewBox="0 0 32 32">
<title>love</title>
<path d="M22.47 3.333c-0.006-0-0.014-0-0.022-0-2.072 0-3.948 0.843-5.301 2.205l-1.147 1.146-1.146-1.146c-1.362-1.362-3.245-2.205-5.324-2.205-4.158 0-7.529 3.371-7.529 7.529 0 2.070 0.835 3.944 2.187 5.305l-0-0 11.323 12.284c0.122 0.132 0.297 0.215 0.49 0.215s0.368-0.083 0.49-0.214l0-0 11.304-12.264c1.363-1.363 2.205-3.245 2.205-5.324 0-4.158-3.371-7.53-7.529-7.53h-0zM26.833 15.264l-10.833 11.753-10.852-11.772c-1.122-1.121-1.816-2.671-1.816-4.382 0-3.422 2.774-6.196 6.196-6.196 1.711 0 3.261 0.694 4.382 1.816l1.618 1.617c0.121 0.121 0.287 0.195 0.471 0.195s0.351-0.075 0.471-0.195l1.618-1.617c1.121-1.122 2.671-1.816 4.383-1.816 3.422 0 6.196 2.774 6.196 6.196 0 1.722-0.702 3.279-1.835 4.402l-0 0z"></path>
</symbol>
<symbol id="icon-mail" viewBox="0 0 32 32">
<title>mail</title>
<path d="M26.667 3.333h-21.333c-1.84 0.002-3.332 1.493-3.333 3.333v18.667c0.002 1.84 1.493 3.332 3.333 3.333h21.334c1.84-0.002 3.332-1.493 3.333-3.333v-18.667c-0.002-1.84-1.493-3.332-3.333-3.333h-0zM28.667 25.333c-0.001 1.104-0.896 1.999-2 2h-21.333c-1.104-0.001-1.999-0.896-2-2v-13.49l10.952 6.572c0.489 0.299 1.082 0.475 1.715 0.475s1.225-0.177 1.73-0.484l-0.015 0.008 10.952-6.572zM28.667 10.289l-11.637 6.983c-0.294 0.179-0.65 0.285-1.030 0.285s-0.736-0.106-1.039-0.29l0.009 0.005-11.637-6.983v-3.622c0.001-1.104 0.896-1.999 2-2h21.333c1.104 0.001 1.999 0.896 2 2v0z"></path>
</symbol>
<symbol id="icon-map" viewBox="0 0 32 32">
<title>map</title>
<path d="M20 28.667c0.076-0 0.148-0.013 0.216-0.035l-0.005 0.001 8-2.667c0.267-0.091 0.455-0.34 0.456-0.633v-21.333c-0-0.368-0.299-0.667-0.668-0.667-0.075 0-0.147 0.012-0.215 0.035l0.005-0.001-7.789 2.596-7.789-2.596c-0.020-0.006-0.040-0-0.060-0.005-0.046-0.008-0.098-0.013-0.152-0.013s-0.106 0.005-0.157 0.013l0.005-0.001c-0.019 0.005-0.040-0.001-0.059 0.005l-8 2.667c-0.267 0.091-0.455 0.34-0.456 0.633v21.333c0 0.368 0.299 0.666 0.667 0.667h0c0.075-0 0.148-0.013 0.216-0.035l-0.005 0.001 7.789-2.596 7.789 2.596c0.063 0.021 0.135 0.034 0.211 0.034h0zM20.667 7.147l6.667-2.223v19.928l-6.667 2.223zM11.333 24.853l-6.667 2.223v-19.928l6.667-2.223zM19.333 27.076l-6.667-2.223v-19.928l6.667 2.223z"></path>
</symbol>
<symbol id="icon-map-pin" viewBox="0 0 32 32">
<title>map-pin</title>
<path d="M14.576 29.367l1.126 0.563c0.087 0.044 0.19 0.070 0.298 0.070s0.211-0.026 0.302-0.072l-0.004 0.002 1.126-0.563c5.92-2.983 9.909-9.013 9.909-15.975 0-0.021-0-0.041-0-0.062v0.003c0-6.259-5.074-11.333-11.333-11.333s-11.333 5.074-11.333 11.333v0c-0 0.017-0 0.038-0 0.059 0 6.962 3.989 12.992 9.807 15.928l0.102 0.047zM16 3.333c5.52 0.006 9.994 4.48 10 9.999v0.001c0 0.016 0 0.036 0 0.055 0 6.444-3.693 12.025-9.077 14.743l-0.095 0.043-0.828 0.414-0.828-0.414c-5.479-2.761-9.172-8.342-9.172-14.786 0-0.019 0-0.039 0-0.058v0.003c0.006-5.52 4.48-9.994 9.999-10h0.001zM16 18c2.577 0 4.667-2.089 4.667-4.667s-2.089-4.667-4.667-4.667c-2.577 0-4.667 2.089-4.667 4.667v0c0.003 2.576 2.091 4.663 4.666 4.667h0zM16 10c1.841 0 3.333 1.492 3.333 3.333s-1.492 3.333-3.333 3.333c-1.841 0-3.333-1.492-3.333-3.333v0c0.002-1.84 1.493-3.332 3.333-3.333h0z"></path>
</symbol>
<symbol id="icon-refresh" viewBox="0 0 32 32">
<title>refresh</title>
<path d="M21.333 7.333h3.881c-2.314-2.465-5.593-4-9.231-4-6.987 0-12.65 5.664-12.65 12.65 0 0.006 0 0.012 0 0.017v-0.001c0 0.368-0.298 0.667-0.667 0.667s-0.667-0.298-0.667-0.667v0c0-0.003 0-0.006 0-0.010 0-7.727 6.264-13.99 13.99-13.99 3.922 0 7.467 1.614 10.007 4.214l0.003 0.003v-3.55c0-0.368 0.298-0.667 0.667-0.667s0.667 0.298 0.667 0.667v0 5.333c0 0 0 0 0 0 0 0.368-0.298 0.666-0.666 0.666-0 0-0 0-0 0h-5.333c-0.368 0-0.667-0.298-0.667-0.667s0.298-0.667 0.667-0.667v0zM29.333 15.333c-0 0-0 0-0 0-0.368 0-0.666 0.298-0.666 0.666 0 0 0 0 0 0v-0c0 0.005 0 0.011 0 0.016 0 6.987-5.664 12.65-12.65 12.65-3.638 0-6.917-1.535-9.224-3.993l-0.006-0.007h3.881c0.368 0 0.667-0.298 0.667-0.667s-0.298-0.667-0.667-0.667v0h-5.333c-0 0-0 0-0 0-0.368 0-0.666 0.298-0.666 0.666 0 0 0 0 0 0v-0 5.333c0 0.368 0.298 0.667 0.667 0.667s0.667-0.298 0.667-0.667v0-3.55c2.543 2.602 6.088 4.216 10.010 4.216 7.727 0 13.99-6.264 13.99-13.99 0-0.003 0-0.007 0-0.010v0.001c0-0 0-0 0-0 0-0.368-0.298-0.666-0.666-0.666-0 0-0 0-0 0h0z"></path>
</symbol>
<symbol id="icon-reload" viewBox="0 0 32 32">
<title>reload</title>
<path d="M2 16c0-0.003 0-0.006 0-0.009 0-7.727 6.264-13.991 13.991-13.991 3.922 0 7.466 1.614 10.007 4.213l0.003 0.003v-3.549c0-0.368 0.298-0.667 0.667-0.667s0.667 0.298 0.667 0.667v0 5.327l0.001 0.006c0 0 0 0 0 0 0 0.368-0.298 0.666-0.666 0.666-0 0-0 0-0 0h-5.335c-0.368 0-0.667-0.298-0.667-0.667s0.298-0.667 0.667-0.667v0h3.882c-2.311-2.444-5.577-3.965-9.198-3.965-6.986 0-12.649 5.663-12.649 12.649s5.663 12.649 12.649 12.649c6.986 0 12.649-5.663 12.649-12.649 0-0.006 0-0.012 0-0.018v0.001c0-0.368 0.298-0.667 0.667-0.667s0.667 0.298 0.667 0.667v0c0 7.732-6.268 14-14 14s-14-6.268-14-14v0z"></path>
</symbol>
<symbol id="icon-search" viewBox="0 0 32 32">
<title>search</title>
<path d="M21.805 20.862l-0.015-0.010c1.786-2.001 2.878-4.655 2.878-7.564 0-6.284-5.094-11.379-11.379-11.379s-11.379 5.094-11.379 11.379c0 6.284 5.094 11.379 11.379 11.379 2.909 0 5.562-1.091 7.574-2.887l-0.011 0.010 0.010 0.015 8 8c0.12 0.116 0.283 0.187 0.463 0.187 0.368 0 0.667-0.298 0.667-0.667 0-0.18-0.071-0.343-0.187-0.463l0 0zM13.333 23.333c-5.523 0-10-4.477-10-10s4.477-10 10-10c5.523 0 10 4.477 10 10v0c-0.006 5.52-4.48 9.994-9.999 10h-0.001z"></path>
</symbol>
<symbol id="icon-star" viewBox="0 0 32 32">
<title>star</title>
<path d="M29.907 12.456c-0.225-0.709-0.878-1.214-1.648-1.214-0.007 0-0.013 0-0.020 0h-7.575c-0.001 0-0.002 0-0.003 0-0.296 0-0.547-0.194-0.632-0.463l-0.001-0.005-2.348-7.542c-0.23-0.723-0.895-1.237-1.68-1.237s-1.45 0.514-1.676 1.225l-0.003 0.012-2.348 7.542c-0.086 0.273-0.337 0.467-0.634 0.467-0.001 0-0.002 0-0.003 0h-7.575c-0 0-0 0-0 0-0.968 0-1.752 0.784-1.752 1.752 0 0.583 0.285 1.099 0.722 1.418l0.005 0.004 5.884 4.246c0.168 0.123 0.276 0.32 0.276 0.542 0 0.062-0.008 0.122-0.024 0.179l0.001-0.005-2.305 8.393c-0.040 0.139-0.063 0.299-0.063 0.465 0 0.972 0.788 1.759 1.759 1.759 0.401 0 0.771-0.134 1.067-0.36l-0.004 0.003 6.27-4.755c0.111-0.084 0.251-0.135 0.403-0.135s0.292 0.051 0.405 0.136l-0.002-0.001 6.27 4.755c0.292 0.223 0.661 0.357 1.062 0.357 0.972 0 1.759-0.788 1.759-1.759 0-0.166-0.023-0.326-0.066-0.479l0.003 0.012-2.303-8.391c-0.015-0.053-0.023-0.113-0.023-0.176 0-0.222 0.108-0.419 0.274-0.541l0.002-0.001 5.884-4.246c0.445-0.316 0.732-0.83 0.732-1.411 0-0.196-0.033-0.385-0.093-0.561l0.004 0.012zM28.484 13.335l-5.884 4.246c-0.505 0.369-0.828 0.959-0.828 1.625 0 0.187 0.026 0.368 0.073 0.54l-0.003-0.014 2.303 8.391c0.010 0.034 0.015 0.073 0.015 0.113 0 0.235-0.191 0.426-0.426 0.426-0.097 0-0.186-0.032-0.258-0.087l0.001 0.001-6.27-4.755c-0.332-0.253-0.753-0.405-1.209-0.405s-0.877 0.152-1.214 0.409l0.005-0.004-6.27 4.755c-0.070 0.054-0.16 0.086-0.257 0.086-0.235 0-0.426-0.191-0.426-0.426 0-0.040 0.005-0.078 0.016-0.115l-0.001 0.003 2.305-8.393c0.044-0.157 0.070-0.338 0.070-0.524 0-0.666-0.324-1.256-0.823-1.622l-0.006-0.004-5.884-4.246c-0.106-0.077-0.174-0.201-0.174-0.34 0-0.231 0.187-0.419 0.419-0.419h7.576c0.002 0 0.005 0 0.007 0 0.891 0 1.645-0.585 1.899-1.391l0.004-0.014 2.348-7.542c0.055-0.175 0.216-0.299 0.406-0.299s0.351 0.124 0.405 0.296l0.001 0.003 2.348 7.542c0.259 0.82 1.013 1.405 1.903 1.405 0.002 0 0.005 0 0.007 0h7.575c0.231 0 0.419 0.188 0.419 0.419 0 0.139-0.068 0.263-0.173 0.339l-0.001 0.001z"></path>
</symbol>
<symbol id="icon-tick" viewBox="0 0 32 32">
<title>tick</title>
<path d="M25.805 8.862c0.121 0.121 0.195 0.287 0.195 0.471s-0.075 0.351-0.195 0.471l-13.333 13.333c-0.121 0.121-0.287 0.195-0.471 0.195s-0.351-0.075-0.471-0.195l-5.333-5.333c-0.116-0.12-0.187-0.283-0.187-0.463 0-0.368 0.298-0.667 0.667-0.667 0.18 0 0.343 0.071 0.463 0.187l4.862 4.862 12.862-12.862c0.121-0.121 0.287-0.195 0.471-0.195s0.351 0.075 0.471 0.195v0z"></path>
</symbol>
<symbol id="icon-user" viewBox="0 0 32 32">
<title>user</title>
<path d="M16 16.667c4.050 0 7.333-3.283 7.333-7.333s-3.283-7.333-7.333-7.333c-4.050 0-7.333 3.283-7.333 7.333v0c0.005 4.048 3.285 7.328 7.333 7.333h0zM16 3.333c3.314 0 6 2.686 6 6s-2.686 6-6 6c-3.314 0-6-2.686-6-6v0c0.004-3.312 2.688-5.996 6-6h0zM9.333 20.667h13.333c3.312 0.004 5.996 2.688 6 6v2.667c0 0.368-0.298 0.667-0.667 0.667s-0.667-0.298-0.667-0.667v0-2.667c-0.003-2.576-2.091-4.663-4.666-4.667h-13.334c-2.576 0.003-4.663 2.091-4.667 4.666v2.667c0 0.368-0.298 0.667-0.667 0.667s-0.667-0.298-0.667-0.667v0-2.667c0.004-3.312 2.688-5.996 6-6h0z"></path>
</symbol>
</defs>
</svg>
